<svg viewBox="0 0 380 236.7119" width="5000" height="3114.6302631578947" xmlns="http://www.w3.org/2000/svg" xmlns:xlink="http://www.w3.org/1999/xlink" preserveAspectRatio="none"><defs></defs><style>.aD6z1nYkhcolor {fill:#34d399;fill-opacity:1;}.aD6z1nYkhstrokeColor-str {stroke:#34d399;stroke-opacity:1;}</style><g opacity="1">
<svg width="380" height="40.2158" x="0" y="196.4961" version="1.1" preserveAspectRatio="none" viewBox="1.5234 -32.4023 395.25390000000004 41.816399999999994">
</svg>
</g><g opacity="1">
<svg width="200" height="218.4467" x="90" y="9.1326" version="1.1" preserveAspectRatio="none" viewBox="8.877445220947266 5.001138687133789 82.24365234375 89.99964141845703">
  <g transform="matrix(1 0 0 1 0 0)" style="fill:#34d399;fill-opacity:1;"><path d="m9.6016 49.352c2.2148 1.2422 4.5703 9.8398 6.8555 11.188 2.2852 1.3477 7.6875 1.5625 7.6875 1.5625l-1.3867-5.8164c-3.1875 0.41406-2.9766 1.7305-4.293 1.3867-1.3164-0.34766-3.2539-6.4414-3.2539-6.4414s1.0664-0.33203 2.5508-0.71875v-0.003907c1.7031 1.2383 3.543 2.2695 5.4844 3.0742l0.97266-4.2188c0.58203-0.039062 1.1641 0.007813 1.7305 0.13281 1.1133 0.25781 2.2461 0.39844 3.3906 0.42188 1.6953 2.582 3.6719 4.9727 5.8906 7.1289 1.8398 1.6836 3.8945 3.1133 6.1133 4.2539-0.67188 2.2109-1 4.5156-0.98047 6.8242 0 0 3.8516 8.3789 6.8047 11.496 0 0-3.6289 5.75-6.1914 7.1328v0.003906c-0.96875 0.16406-1.9219 0.40234-2.8555 0.71094-0.10938 0.039062-0.21875 0.078125-0.32812 0.11719-1.4531 0.55469-2.8398 5.4023-2.8398 5.4023h7.2344v0.003907c-0.19531-1.4688 0.57422-2.8945 1.9062-3.5312 2.4023-2.4883 4.9961-4.7812 7.7578-6.8594 1.7383-1.0742 3.168-2.5742 4.1562-4.3633 0 0-3.6016-3.7383-4.1562-5.2305l1.0859-2.6445c1.7617 2.043 3.6445 3.9766 5.6328 5.7969 4.5039 0.625 5.125 2.2148 5.125 2.2148-0.55469 2.2852-7.4805 8.0352-7.4805 8.0352-2.4258 0.55469-5.5078 3.1172-5.5078 3.1172-0.92188 1.75-1.6758 3.582-2.25 5.4727h7.9648c0.20703-0.90234 0.69141-3.5312 0.69141-3.5312 2.9766-0.69141 1.4531-0.27734 2.9766-3.1172 1.5234-2.8398 6.4414-6.0938 6.4414-6.0938 4.3633-2.4258 7.3398-7.4102 7.3398-7.4102l0.003906-0.003906c-1.1133-1.3242-2.6133-2.2695-4.293-2.6992-2.4258-0.41406-0.96875-3.0078-0.96875-3.0078 3.2539-2.1055 4.8711-8.5977 4.8711-8.5977l-0.09375-0.042968c0.36328-2.0742-0.48047-5.3047-0.98047-7.4766 1.8789-1.2773 3.6523-2.9297 5.5547-3.7305 3.1133-1.3164-4.2266 5.8867-1.9414 6.4414 2.2852 0.55469 1.1758 3.1875-0.20703 8.7969-1.3867 5.6094-0.69141 6.7188 6.3711 12.191 7.0664 5.4688 8.9336-1.1797 8.9336-1.1797-4.7109 4.1562-8.9336-0.27734-4.1562-7.2031 4.7773-6.9258-5.0547-10.391-3.4648-13.781 1.5938-3.3945 2.2148-8.8672 0.41406-11.152-1.8008-2.2852-5.957-1.2461-8.2422 2.6484-2.2812 3.8945-4.3047 4.7773-4.3047 4.7773-2.0508-1.9023-7.1641-3.4688-9.2617-3.4141-2.5625 0.070313-6.0938 0-6.0938 0l-0.003907 0.003907c-1.2305-0.5625-2.332-1.3672-3.25-2.3594-0.67578-1.0664-1.043-2.1133-0.58984-2.8555 1.3516-2.2383 5.1562 0.99219 5.1562 0.99219v-0.003906c-0.75781-2.0547-2.0234-3.8867-3.6719-5.332 9.9727 5.6094 13.852-3.3945 13.852-3.3945-4.9883 4.7109-14.059 0.20703-12.191-4.293 1.8711-4.5039 9.2812-1.707 9.2812-1.707-1.4531-7.7344-8.4492-6.2578-8.4492-6.2578 3.6719-1.5938 3.4648-3.5312 6.2344-5.957 2.7695-2.4258 6.2344 3.4648 6.2344 3.4648 1.0391-3.4648-4.8477-9.418-7.7695-6.0273-1.6484 1.9727-4.3086 2.7852-6.7734 2.0625 6.2305-1.3984 9.2109-7.5352 4.3633-10.027-4.8477-2.4922-6.3711 2.2617-6.3711 2.2617 0.76172-1.7539 6.1641-1.6406 3.6016 1.5469s-5.5391-0.41406-12.477-1.3867c-6.9375-0.96875-7.5859 2.7344-7.5859 2.7344l0.003907 0.007813c-0.29297 0.007812-0.49219 0.019531-0.58594 0.023437l-0.003906 0.003906c-0.39453-1.5078-1.0664-2.9297-1.9805-4.1875-0.91406 1.3359-1.3164 2.957-1.1406 4.5664-0.75-1.0195-1.7891-1.7891-2.9883-2.207 0.023438 1.7891 0.39062 3.5547 1.0781 5.207-0.80078 0.64062-1.5078 1.3945-2.0977 2.2344-1.7305 2.7031-0.55469 4.3633-0.55469 4.3633l-4.5703 8.7266c1.3125 2.0195 3.8984 2.7812 6.0977 1.8008 1.0156-2.2422 2.6992-3.582 6.332-5.4453v0.003906c0.95703 0.54297 1.6641 1.4336 1.9766 2.4883 0.20703 1.5469-7.2031 5.0312-7.2031 5.0312-1.3438 1.3164-2.5508 2.7656-3.5938 4.3281-0.11328 0.16406-0.21875 0.3125-0.31641 0.44922-0.42578 0.44922-1.3672 1.0312-3.293 0.76562-2.9766-0.41406-6.7891-6.7188-8.9336-5.332v-0.003906c-1.2031 0.69531-2.1133 1.8047-2.5625 3.1172 0 0 2.5039 4.8438 4.082 8.4766-5.6055 0.34766-7.7227 2.9453-5.7461 4.0547zm6.7891-9.8984c1.3438 2.1758 3.1406 4.0352 5.2656 5.457-0.85156 0.17578-1.7148 0.28906-2.582 0.33984-0.25-0.57812-0.68359-1.0547-1.2305-1.3633-1.7305-0.90234-1.4531-4.4336-1.4531-4.4336z"></path></g>
</svg>
</g></svg>
